# xmcd
#
# Track frame offsets: 
#        180
#        18928
#        35450
#        58124
#        80370
#        102489
#        118979
#        138303
#        156219
#        185443
#        200859
#        215791
#
# Disc length: 3162 seconds
#
# Revision: 0
# Processed by: cddbd v1.5.1PL2 Copyright (c) Steve Scherf et al.
# Submitted via: ExactAudioCopy v0.95b3
#
DISCID=b20c580c
DTITLE=Mel Waiters - Suki-Suki man
DYEAR=1997
DGENRE=Blues
TTITLE0=Money Where (Your Mouth)
TTITLE1=Suki - Suki Man
TTITLE2=Time At Home
TTITLE3=Man Shoes
TTITLE4=The Only Time (He Comes Home)
TTITLE5=Is It True
TTITLE6=Teddy Bear
TTITLE7=Mind On Me
TTITLE8=Bring Some (To Get Some)
TTITLE9=Wrong House
TTITLE10=Suki - Suki Man (Remix)
TTITLE11=I Never Thought
EXTD=
EXTT0=
EXTT1=
EXTT2=
EXTT3=
EXTT4=
EXTT5=
EXTT6=
EXTT7=
EXTT8=
EXTT9=
EXTT10=
EXTT11=
PLAYORDER=
